<?xml version="1.0" encoding="utf-8"?>

<!DOCTYPE svg PUBLIC "-//W3C//DTD SVG 1.1//EN" "http://www.w3.org/Graphics/SVG/1.1/DTD/svg11.dtd">
<svg version="1.1" id="Layer_1" xmlns="http://www.w3.org/2000/svg" xmlns:xlink="http://www.w3.org/1999/xlink" x="0px" y="0px"
	 viewBox="0 0 1280 995" enable-background="new 0 0 1280 995" xml:space="preserve">
<g>
	<rect y="0" fill="#6190FF" width="1280" height="793.95"/>
	<path fill="#FFFFFF" stroke="#FFFFFF" stroke-width="0.0938" d="M952.85,34.85c10.04-3.67,20.27-7.41,31.09-7.75
		c20.94-1.35,41.4901,4.26,61.15,10.87c10.63,4.04,21.26,8.22,31.27,13.66c8.3,5.05,15.83,11.44,21.99,18.96
		c5.05,6.03,10.36,12.02,13.9401,19.07c2.08,5.98,4.1799,11.97,5.8199,18.1c6.1801-3.37,13.27-4.1,20.0701-5.44
		c12.0099-2.07,24.2599,0.61,35.3899,5.18c8.28,3.43,16.9701,7,23.1101,13.81c5.5299,5.94,11.33,12.05,14.13,19.84
		c2.84,8.03,4.2599,16.5,5.45,24.91c2.01,12.69-0.48,25.62-4.5701,37.65c-3.7699,9.06-9.84,17.25-17.87,22.96
		c3.9501,0.79,8.4501,0.06,11.8601,2.66c7.0099,4.81,14.13,9.89,18.97,17.03c6.2,8.25,11.46,17.99,10.74,28.65
		c-0.91,9.01-0.66,18.48-4.5601,26.87c-4.7799,10.45-12.48,19.58-22.23,25.72c-6.21,3.87-12.95,8.24-20.59,7.7
		c-3.3201-0.03-6.63-0.34-9.9301-0.37c5.0901,3.17,8.8501,8.06,11.79,13.23c4.33,8.24,7.25,17.45,6.96,26.85
		c0.12,7.82,0.49,16.6-4.88,22.98c-6.4299,7.82-13.45,15.28-21.51,21.45c-3.58,2.59-7.3199,5.1-11.5299,6.5
		c-8.4501,2.34-17.3401,2.13-25.91,0.68c0.46,4.54,0.47,9.13-1.02,13.49c-1.38,8.92-8.4199,15.76-16.0499,19.86
		c-7.52,2.13-16.0901,3.03-23.3-0.61c-3.7-1.76-5.96-5.35-9.33-7.55c0.6599,4.69,2.22,9.74-0.29,14.19
		c-3.04,5.62-10.1801,6.86-16,6.17c-3.03-0.37-4.76-3.13-6.83-5.02c-0.4401,3.83-0.5601,7.93-2.9,11.19
		c-5.04,7.52-11.99,13.89-20.3401,17.54c-14.6299,6.45-31.08,9.81-46.9999,7.07c-5.73-0.94-11.7-1.23-16.94-3.97
		c-6.33-3.37-11.92-7.98-17.27-12.71c-3.68-3.07-5.91-7.65-9.85-10.35c-3.62,1.01-6.41,3.73-9.81,5.24
		c-7.82,3.61-16.6,3.98-25.07,4.2c-5.42,0.05-10.65-1.53-15.96-2.35c-7.28-1.05-13.53-5.17-20.22-7.93
		c-6.85-4.23-11.87-10.78-17.12-16.77c-3.21-3.68-5.82-7.83-7.62-12.36c-3-7.12-7.7-13.69-8.47-21.56
		c-9.56,0.79-19.14-0.83-28.24-3.75c-14.25-4.43-28.79-9.72-39.9-20.06c-8.46-6.76-12.4399-17.12-17.87-26.13
		c-3.12-10.82-3.88-22.22-3.62-33.44c-0.47-12.39,3.13-24.56,8.34-35.68c5.18-10.34,13.74-18.33,20.36-27.67
		c3.3-3.71,8.16-5.58,11.37-9.43c-7.15-0.19-13.76-3.2-20.15-6.14c-2.66-1.21-4.39-3.65-6.15-5.87c-7.8-9.81-13.37-21.7-14.34-34.3
		c-0.27-8-0.3199-16.07,1.3701-23.94c1.3-10.29,6.11-19.59,10.1-29.02c7.74-13.46,19.51-24.16,32.19-32.9
		c5.66-3.03,11.76-5.14,17.79-7.32c-1.22-6.15-0.74-12.45-0.48-18.67c0.91-5.73,1.85-11.7,5.04-16.66
		c4.3-7.16,10.01-13.29,15.59-19.45c6.95-7.23,15.96-12.03,25.08-15.98c8.2-3.05,16.96-4.11,25.58-5.27
		c9.13-1.14,18.26,0.49,27.14,2.54c2.81,0.74,5.18,2.54,7.9,3.54C927.88,48.22,939.6,39.57,952.85,34.85 M981.38,117.38
		c-20.74,3.15-41.7,8.16-59.78,19.2c-8.9,5.9-17.93,11.94-24.85,20.19c-3.93,4.79-8.36,9.27-11.24,14.81
		c-6.58,11.97-10.57,25.68-9.79,39.42c0.1,13.56-1.0099,28.53,7.02,40.29c4.87,7.28,13.06,13.79,22.3,12.72
		c5.31-0.24,10.63-0.81,15.81-2.06c6.34-1.48,11.83-5.29,16.7401-9.44c8.08-7.02,11.78-18.02,11.47-28.53
		c-0.16-6.05,1.62-12.53,6.29-16.64c4.36-3.95,8.47-8.52,14.09-10.71c8.3-3.42,17.77-2.13,25.96,1.03c3.53,1.35,7.68,2.91,9.04,6.83
		c2.4,6.19,4.39,12.8,3.86,19.51c-1.25,10.84-6.1,21.64-14.91,28.38c-5.32,3.96-9.94,8.73-14.67,13.34
		c-5.33,5.42-11.37,10.48-14.62,17.51c-4.55,9.18-4.7599,19.75-3.89,29.75c0.19,3.85,3.43,6.38,5.99,8.84
		c2.72,2.44,5.58,5.15,9.37,5.64c10.03,1.82,20.26,2.04,30.43,1.81c5.29-0.14,10.5-1.63,15.21-4.03c2.52-1.14,3.68-3.79,5.02-6.02
		c2.38-4.45,5.3201-8.57,8.34-12.61c2.7001-3.6,5.16-7.52,8.8601-10.2c6.59-4.85,14.0199-8.44,20.4199-13.57
		c7.39-5.91,13.9601-12.88,19.5-20.55c6.61-9.96,13.05-21.02,12.9301-33.37c1.5-16.7,2.97-34.17-2.9601-50.24
		c-2.2599-5.28-4.97-10.36-7.5599-15.49c-6.41-10.43-16.9-17.32-26.84-24.04c-12.86-8.36-27.2201-14.07-41.9901-18.02
		C1005.3,118.49,993.39,115.21,981.38,117.38 M975.42,353.49c-7.15,1.91-13.18,7.06-16.14,13.86c-2.96,5.73-2.53,12.37-2.1201,18.61
		c0.39,4.74,1.15,9.77,4.29,13.55c5.12,6.21,12.5,10.72,20.57,11.64c10.88,1.22,22.31,1.7,32.66-2.51c3.75-1.68,6.41-4.97,8.92-8.11
		c2.53-3.39,5.52-6.97,5.42-11.46c0.4199-8.82,0.9199-19.4-6.27-25.85c-5.91-4.91-12.59-10.34-20.69-10.29
		c-5.03-0.14-10.05,0.15-15.06-0.04C983.14,352.83,979.17,352.33,975.42,353.49z"/>
	<path fill="#352E2C" stroke="#352E2C" stroke-width="0.0938" d="M372.92,81.1c11.07-1.28,22.33-1.56,33.29,0.79
		c22.17,5.3,44.76,9.09,66.36,16.54c14.05,5.62,28,11.55,41.37,18.64c6.89,3.45,12.57,8.72,18.49,13.55
		c8.17,6.87,14.64,15.42,20.95,23.96c3.84,4.95,7.33,10.17,10.54,15.55c6.59,10.92,13.45,21.75,18.4,33.55
		c8.62,18.52,13.58,38.45,17.64,58.39c1.66,8.29,4.31,16.42,4.79,24.91c0.61,5.66,1.86,11.32,1.31,17.05
		c-1.96,15.68-1.53,31.57-3.79,47.22c-1.74,10.32-6.38,19.8-10.34,29.4c-4.11,9.64-8.62,19.14-14.26,27.98
		c-8.46,12.98-18.06,25.18-28.32,36.78c-10.03,10.65-20.2599,21.57-33.16,28.78c-3.51,2.17-7.3,4-11.36,4.83
		c2.75-5.44,7.81-9.31,10.37-14.9c9.5-15.67,15.5-33.28,18.55-51.31c1.99-13.18,2-26.52,1.98-39.82c0.55-8.32-1.14-16.53-2.25-24.74
		c-1.85-10.81-5.75-21.49-12.64-30.14c-6.65,2.72-13.49,5.47-20.76,5.79c-17.56,1.04-35.12-1.22-52.34-4.48
		c-15.13-2.71-29.53-8.33-43.39-14.83c-16.98-8.19-33.03-18.31-47.55-30.35c-9.03-6.86-17.56-14.47-24.72-23.28
		c-3.72-4.69-6.29-10.16-9.94-14.88c-9.63,4.1-18.78,9.45-26.73,16.3c-13.99,10.68-24.92,25.11-31.67,41.34
		c-2.57,6.28-5.03,12.63-6.81,19.19c-1.95,7.32-4.92,14.38-6.14,21.89c-2.74,15.9-4.28,32.15-2.73,48.26
		c0.55,6.87,1.49,13.7,2.46,20.52c1.76,12.44,5.76,24.41,8.47,36.65c4.14,10.95,10.11,21.07,15.24,31.56
		c2.11,4.42,6.51,7.19,8.54,11.64c-6.18-0.91-11.41-4.59-16.74-7.56c-24.07-23.49-45.48-50.09-60.77-80.17
		c-3.57-6.78-6.19-14-9.3-20.99c-6.56-17.8-10.81-36.45-12.18-55.38c-1.36-13.24-0.58-26.55-0.03-39.81
		c0.66-9.64,2.6-19.12,4.14-28.64c2.82-11.31,5.07-22.84,9.26-33.75c2.73-7.41,7.65-13.67,11.61-20.42
		c7.2-11.78,16.14-22.38,25.44-32.55c11.56-12.09,24.14-23.14,36.44-34.47c16.03-14.86,35.02-26.05,54.64-35.46
		C340.42,87.64,356.34,82.26,372.92,81.1 M246.33,359.45c-0.53,6.67-0.46,13.44-0.07,20.12l0.71,0.44
		c-0.01-7.06,0.16-14.12,0.04-21.18L246.33,359.45 M536.18,359.77c-0.09,12.97-0.17,25.97-0.15,38.95l0.74,0.05
		c0.47-10.58,0.05-21.18,0.24-31.76C536.89,364.59,537.37,361.98,536.18,359.77z"/>
	<path fill="#C0D1FA" d="M981.38,117.38c12.01-2.17,23.92,1.11,35.55,3.75c14.77,3.95,29.1301,9.66,41.9901,18.02
		c9.9399,6.72,20.4299,13.61,26.84,24.04c2.59,5.13,5.3,10.21,7.5599,15.49c5.9301,16.07,4.4601,33.54,2.9601,50.24
		c0.12,12.35-6.3201,23.41-12.9301,33.37c-5.5399,7.67-12.11,14.64-19.5,20.55c-6.4,5.13-13.83,8.72-20.4199,13.57
		c-3.7001,2.68-6.16,6.6-8.8601,10.2c-3.0199,4.04-5.96,8.16-8.34,12.61c-1.34,2.23-2.5,4.88-5.02,6.02
		c-4.71,2.4-9.92,3.89-15.21,4.03c-10.17,0.23-20.4,0.01-30.43-1.81c-3.79-0.49-6.65-3.2-9.37-5.64c-2.56-2.46-5.8-4.99-5.99-8.84
		c-0.87-10-0.66-20.57,3.89-29.75c3.25-7.03,9.29-12.09,14.62-17.51c4.73-4.61,9.35-9.38,14.67-13.34
		c8.81-6.74,13.66-17.54,14.91-28.38c0.53-6.71-1.46-13.32-3.86-19.51c-1.36-3.92-5.51-5.48-9.04-6.83
		c-8.19-3.16-17.66-4.45-25.96-1.03c-5.62,2.19-9.73,6.76-14.09,10.71c-4.67,4.11-6.45,10.59-6.29,16.64
		c0.31,10.51-3.39,21.51-11.47,28.53c-4.91,4.15-10.4,7.96-16.7401,9.44c-5.18,1.25-10.5,1.82-15.81,2.06
		c-9.24,1.07-17.43-5.44-22.3-12.72c-8.03-11.76-6.92-26.73-7.02-40.29c-0.78-13.74,3.21-27.45,9.79-39.42
		c2.88-5.54,7.31-10.02,11.24-14.81c6.92-8.25,15.95-14.29,24.85-20.19C939.68,125.54,960.64,120.53,981.38,117.38z"/>
	<path fill="#FDE0C9" stroke="#FDE0C9" stroke-width="0.0938" d="M295.41,252.38c7.95-6.85,17.1-12.2,26.73-16.3
		c3.65,4.72,6.22,10.19,9.94,14.88c7.16,8.81,15.69,16.42,24.72,23.28c14.52,12.04,30.57,22.16,47.55,30.35
		c13.86,6.5,28.26,12.12,43.39,14.83c17.22,3.26,34.78,5.52,52.34,4.48c7.27-0.32,14.11-3.07,20.76-5.79
		c6.89,8.65,10.79,19.33,12.64,30.14c1.11,8.21,2.8,16.42,2.25,24.74c0.02,13.3,0.01,26.64-1.98,39.82
		c-3.05,18.03-9.05,35.64-18.55,51.31c-2.56,5.59-7.62,9.46-10.37,14.9c4.06-0.83,7.85-2.66,11.36-4.83
		c12.9-7.21,23.13-18.13,33.16-28.78c10.26-11.6,19.86-23.8,28.32-36.78c5.64-8.84,10.15-18.34,14.26-27.98
		c1.89,0.5,4.29,0.21,5.67,1.86c2.41,2.96,3.57,6.71,4.5,10.36c1.32,5.61,2.35,11.33,2.52,17.11c0.23,14.7-1.65,29.37-4.94,43.68
		c-2.77,9.72-4.84,19.7-9.04,28.94c-4.32,7.85-8.71,15.73-14.23,22.81c-9.43,12.8-21.71,23.11-33.86,33.23
		c-3.14,2.68-7.12,4.09-10.32,6.66c-0.66,4.86,0.35,9.74,0.77,14.58c0.2,3.26,0.61,6.59-0.07,9.82c-1.79,1.85-4.27,2.74-6.62,3.62
		c-20.78,7.16-42.25,11.98-63.53,17.37c-3.94,0.56-10.32,2.37-11.83-2.83c-1.45-7.05-3.73-13.93-6.47-20.56
		c-1.98-11.57-8.73-22.99-5.28-34.94c1.68-7.98,6.16-14.87,9.66-22.1c-14.43,4.6-29.21,8.03-44.14,10.59
		c-2.94,0.36-5.89,0.69-8.85,0.78c-1.1,0.06-2.2,0.1-3.3,0.11c-11.2-0.12-22.59-0.58-33.37-3.89c-5.83-1.64-11.4-4.0699-17.18-5.86
		c6,7.34,12.91,14.09,17.57,22.41c3.15,8.78,1.04,18.22-1.17,26.96c-3.15,4.36-4.49,9.66-6.4,14.62c-0.94,2.79-2.15,5.55-2.46,8.51
		c0.26,0.28,0.78,0.84,1.04,1.12c-2.63,2.41-3.45,5.93-5.06,8.99c-1.09,2.2401-4,1.82-6.07,1.96c-11.67-0.53-23.44-0.65-34.91-3.05
		c-10.62-2.2-21.02-5.33-31.3-8.73c-5.35-1.9-11.1-3.67-15.18-7.85c-1.6-1.49-1.69-3.8-2.24-5.78c1.82-6.86,2.91-13.88,4.55-20.78
		c0.07-1.34,1.14-3.34-0.41-4.19c-8.46-5.55-16.88-11.18-25.16-17c-3.28-2.34-6.91-4.32-9.55-7.43
		c-6.63-8.04-13.52-15.88-19.82-24.19c-4.68-6.59-8.12-13.96-11.5-21.27c-5.87-18.85-11.33-38.35-10.28-58.28
		c0.58-12.99,0.49-26.54,5.66-38.7c0.91-2.99,3.92-3.94,6.63-4.6c3.11,6.99,5.73,14.21,9.3,20.99
		c15.29,30.08,36.7,56.68,60.77,80.17c5.33,2.97,10.56,6.65,16.74,7.56c-2.03-4.45-6.43-7.22-8.54-11.64
		c-5.13-10.49-11.1-20.61-15.24-31.56c-2.71-12.24-6.71-24.21-8.47-36.65c-0.97-6.82-1.91-13.65-2.46-20.52
		c-1.55-16.11-0.01-32.36,2.73-48.26c1.22-7.51,4.19-14.57,6.14-21.89c1.78-6.56,4.24-12.91,6.81-19.19
		C270.49,277.49,281.42,263.06,295.41,252.38z"/>
	<path fill="#C0D1FA" d="M975.42,353.49c3.75-1.16,7.72-0.66,11.58-0.6c5.01,0.19,10.03-0.1,15.06,0.04
		c8.1-0.05,14.78,5.38,20.69,10.29c7.1899,6.45,6.6899,17.03,6.27,25.85c0.1,4.49-2.89,8.07-5.42,11.46
		c-2.5099,3.14-5.17,6.43-8.92,8.11c-10.35,4.21-21.78,3.73-32.66,2.51c-8.07-0.92-15.45-5.43-20.57-11.64
		c-3.14-3.78-3.9-8.81-4.29-13.55c-0.41-6.24-0.84-12.88,2.1201-18.61C962.24,360.55,968.27,355.4,975.42,353.49z"/>
	<path fill="#1B1615" stroke="#1B1615" stroke-width="0.0938" d="M246.33,359.45l0.68-0.62c0.12,7.06-0.05,14.12-0.04,21.18
		l-0.71-0.44C245.87,372.89,245.8,366.12,246.33,359.45z"/>
	<path fill="#181515" stroke="#181515" stroke-width="0.0938" d="M536.18,359.77c1.19,2.21,0.71,4.82,0.83,7.24
		c-0.19,10.58,0.23,21.18-0.24,31.76l-0.74-0.05C536.01,385.74,536.09,372.74,536.18,359.77z"/>
	<path fill="#FFFFFF" d="M779.35,475.43c8.92-0.28,18.5-1.82,26.84,2.3c4.24,1.6,7.09,5.91,11.79,6.44
		c4.65,0.61,9.36,0.77,13.93,1.95c5.39,1.35,11.2,1.83,15.94,4.99c2.94,1.96,5.9,4.29,7.4901,7.54c1.66,4.23,2.5,8.78,2.44,13.33
		c-0.04,4.95,0.29,9.99-0.95,14.84c-1.35,6.18-4.99,11.48-8.28,16.77c-2.79,4.62-7.81,6.98-12.22,9.74
		c-5.69,3.36-11.62,6.72-18.27,7.66c-9.95,1.51-20.07,0.4-29.96-1.04c-5.72-0.84-10.5-4.75-13.85-9.26c-1.46-3.72-1-7.86-0.98-11.76
		c0.05-5.75,3.94-11.57,0.91-17.13c-1.7-4.73-6.93-6-10.85-8.2c-4.43-5.13-8.1-11.58-7.42-18.61c-0.52-4.59,1.07-9.37,5.01-12.03
		C766.37,479.07,772.79,476.67,779.35,475.43z"/>
	<path fill="#FBB300" stroke="#FBB300" stroke-width="0.0938" d="M184.86,499.9c2.29-8.1,3.59-16.9,9.09-23.61
		c3.38,7.31,6.82,14.68,11.5,21.27c6.3,8.31,13.19,16.15,19.82,24.19c2.64,3.11,6.27,5.09,9.55,7.43c8.28,5.82,16.7,11.45,25.16,17
		c1.55,0.85,0.48,2.85,0.41,4.19c-1.64,6.9-2.73,13.92-4.55,20.78c-4.45-1.11-8.96-2.4-13.58-2.28c-2.99,5.08-4.24,10.92-5.88,16.52
		c-3.9,13.46-7.59,27.01-10.49,40.72c-0.36,3.06-1.61,6.4-0.44,9.38c6.45,7.43,15.99,11.09,25.16,13.93
		c8.69,2.41,17.29,5.18,26.12,7.03c17.87,4.06,36.14,5.99,54.27,8.44c6.16,0.18,12.43,1.1,18.54-0.05c1.7-5.57,3.4-11.13,5.45-16.59
		c4.32-18.99,9.21-38.34,7.73-57.97c-3.76-2.1801-8.06-3.2-12.12-4.67c-0.26-0.28-0.78-0.84-1.04-1.12
		c0.31-2.96,1.52-5.72,2.46-8.51c1.91-4.96,3.25-10.26,6.4-14.62c6.95-6.03,12.81-13.17,18.86-20.07
		c5.56-6.14,9.89-13.27,15.29-19.55c1.1-0.01,2.2-0.05,3.3-0.11c5.47,6.07,11.91,11.13,18.04,16.49
		c10.55,9.35,20.83,18.98,30.57,29.18c2.74,6.63,5.02,13.51,6.47,20.56c-5.65,0.84-11.34,1.73-16.78,3.48
		c-2.65,0.6299-3.03,3.8-2.37,6.02c2.8,13.51,3.92,27.29,7.09,40.73c1.45,5.81,2.75,12.49,7.89,16.24
		c7.33,1.94,14.9-0.61,22.24-1.41c21.27-2.66,42.47-6.16,63.21-11.62c7.97-2.38,16.1-4.66,23.44-8.66c3.23-1.48,3.8-5.42,3.69-8.58
		c-0.2-9.76-1.9-19.41-2.67-29.12c-0.84-9.16-1.79-18.38-4.46-27.22c-0.9-2.5699-0.75-5.68-2.45-7.86
		c-5.58-0.37-11.1801,0.3-16.78,0.02c-0.42-4.84-1.43-9.72-0.77-14.58c3.2-2.57,7.18-3.98,10.32-6.66
		c12.15-10.12,24.43-20.43,33.86-33.23c5.52-7.08,9.91-14.96,14.23-22.81c2.09,3.43,4.89,6.43,6.62,10.09
		c4.04,8.83,7.51,17.95,9.8,27.4c4.59,14.83,7.28,30.1299,10.19,45.35c4.24,25.67,6.11,51.65,8.42,77.54
		c1.24,18.64,1.89,37.32,2.83,55.98c1.01,11.32,0.75,22.71,1.56,34.05c0.22,8.32,0.97,16.64,0.68,24.97
		c-0.63,6.57-2.59,12.92-4.45,19.22c-1.44,5.57-2.7599,11.17-4.55,16.65c-1.44,3.9301-3.17,7.82-5.78,11.13
		c-10.23,12.72-20.86,25.11-31.66,37.34c-8.09,8.57-16.1,17.52-26.29,23.66c-2.21,1.5-5.14,1.6-7.57,0.57
		c-10.51-4.68-20.42-10.64-31.18-14.75c-7.6-2.81-14.2-7.66-20.76-12.3c-7.44-6.55-17.01-10.91-22.33-19.62
		c-2.32-4.04-5.05-7.91-6.72-12.27c-1.03-4.43-0.07-9.02-0.52-13.5c-49.97-0.07-99.96,0-149.93-0.02
		c-5.23,0.12-10.49-0.42-15.69,0.19c-3.18,7.06-5.18,14.61-8.35,21.6899c-2.59,7.3701-7.72,13.39-12.71,19.25
		c-5.69,6.7-12.62,12.1801-19.7,17.32c-2.8,1.96-5.68,3.93-8.92,5.08c-5.21,1.74-11.13,0.45-15.46-2.81
		c-22.33-17.86-46.11-34.24-65.66-55.29c-2.02-2.05-4.03-4.11-6.11-6.08c-3.68-3.82-6.24-8.49-8.77-13.1
		c-1.19-2.28-2.3-4.72-2.2-7.34c-0.29-45.13,3.68-90.16,8.56-135c3.93-33.44,5.6-67.26,12.61-100.28
		C179.27,525.09,181.28,512.31,184.86,499.9z"/>
	<path fill="#FFFFFF" stroke="#FFFFFF" stroke-width="0.0938" d="M404.72,520.85c14.93-2.56,29.71-5.99,44.14-10.59
		c-3.5,7.23-7.98,14.12-9.66,22.1c-3.45,11.95,3.3,23.37,5.28,34.94c-9.74-10.2-20.02-19.83-30.57-29.18
		c-6.13-5.36-12.57-10.42-18.04-16.49C398.83,521.54,401.78,521.21,404.72,520.85z"/>
	<path fill="#FFFFFF" stroke="#FFFFFF" stroke-width="0.0938" d="M342.02,511.99c5.78,1.79,11.35,4.22,17.18,5.86
		c10.78,3.31,22.17,3.77,33.37,3.89c-5.4,6.28-9.73,13.41-15.29,19.55c-6.05,6.9-11.91,14.04-18.86,20.07
		c2.21-8.74,4.32-18.18,1.17-26.96C354.93,526.08,348.02,519.33,342.02,511.99z"/>
	<path fill="#FFFFFF" d="M705.33,550.43c4.72-0.67,9.56-0.47,14.29,0.05c5.44,3.31,9.22,8.95,10.91,15.04
		c1.53,6.62-0.5,13.93-5.05,18.93c-7.68,6.21-19.22,6.66-27.69,1.8c-3.4-1.66-7.72-3.88-7.83-8.21c-1.2401-7.09,1.69-14,4.98-20.11
		C696.99,553.94,700.84,551.02,705.33,550.43z"/>
	<path fill="#FFFFFF" stroke="#FFFFFF" stroke-width="0.0938" d="M533,559.88c5.6,0.28,11.2-0.39,16.78-0.02
		c1.7,2.18,1.55,5.29,2.45,7.86c2.67,8.84,3.62,18.0601,4.46,27.22c0.77,9.71,2.47,19.36,2.67,29.12c0.11,3.16-0.46,7.1-3.69,8.58
		c-7.34,4-15.47,6.28-23.44,8.66c-20.74,5.46-41.94,8.96-63.21,11.62c-7.34,0.8-14.91,3.35-22.24,1.41
		c-5.14-3.75-6.44-10.43-7.89-16.24c-3.17-13.44-4.29-27.22-7.09-40.73c-0.66-2.22-0.28-5.39,2.37-6.02
		c5.44-1.75,11.13-2.64,16.78-3.48c1.51,5.2,7.89,3.39,11.83,2.83c21.28-5.39,42.75-10.21,63.53-17.37
		c2.35-0.88,4.83-1.77,6.62-3.62C533.61,566.47,533.2,563.14,533,559.88z"/>
	<path fill="#FFFFFF" stroke="#FFFFFF" stroke-width="0.0938" d="M242.26,568.87c4.62-0.12,9.13,1.17,13.58,2.28
		c0.55,1.98,0.64,4.29,2.24,5.78c4.08,4.18,9.83,5.95,15.18,7.85c10.28,3.4,20.68,6.53,31.3,8.73c11.47,2.4,23.24,2.52,34.91,3.05
		c2.07-0.14,4.98,0.28,6.07-1.96c1.61-3.06,2.43-6.58,5.06-8.99c4.06,1.47,8.36,2.49,12.12,4.67c1.48,19.6299-3.41,38.98-7.73,57.97
		c-2.05,5.46-3.75,11.02-5.45,16.59c-6.11,1.15-12.38,0.23-18.54,0.05c-18.13-2.45-36.4-4.38-54.27-8.44
		c-8.83-1.85-17.43-4.62-26.12-7.03c-9.17-2.84-18.71-6.5-25.16-13.93c-1.17-2.98,0.08-6.32,0.44-9.38
		c2.9-13.71,6.59-27.26,10.49-40.72C238.02,579.79,239.27,573.95,242.26,568.87z"/>
	<path fill="#E4E1E0" d="M166.4,793.44c2.08,1.97,4.09,4.03,6.11,6.08c19.55,21.05,43.33,37.43,65.66,55.29
		c4.33,3.26,10.25,4.55,15.46,2.81c3.24-1.15,6.12-3.12,8.92-5.08c7.08-5.14,14.01-10.62,19.7-17.32
		c4.99-5.86,10.12-11.8799,12.71-19.25c3.17-7.08,5.17-14.6299,8.35-21.6899c5.2-0.61,10.46-0.07,15.69-0.19
		c49.97,0.02,99.96-0.05,149.93,0.02c0.45,4.48-0.51,9.07,0.52,13.5c1.67,4.36,4.4,8.23,6.72,12.27
		c5.32,8.71,14.89,13.07,22.33,19.62c6.56,4.64,13.16,9.49,20.76,12.3c10.76,4.11,20.67,10.07,31.18,14.75
		c2.43,1.03,5.36,0.93,7.57-0.57c10.19-6.14,18.2-15.09,26.29-23.66c10.8-12.23,21.43-24.62,31.66-37.34
		c2.61-3.31,4.34-7.2,5.78-11.13c105.75,0.25,211.5,0.03,317.26,0.1c113.66,0,227.33,0.01,341,0V995H0V793.94
		c50.67,0.04,101.33-0.02,152,0.03C156.8,794.09,161.62,793.98,166.4,793.44z"/>
</g>
</svg>
